<svg id="Layer_2" data-name="Layer 2" xmlns="http://www.w3.org/2000/svg" viewBox="0 0 297.5 185.39"><defs><style>.cls-1{fill:none;stroke:#fff;stroke-linecap:round;stroke-linejoin:round;}</style></defs><polyline class="cls-1" points="19.15 152.41 19.15 184.89 69.69 184.89 69.69 164.56"/><path class="cls-1" d="M588.58,432.74,600.44,435,627,412.69l7.63-22.59s20.33-16.66,22.59-18.63c1.95-1.72,12.61-16.16,15.41-20a.8.8,0,0,0-.44-1.26c-4.78-1.35-23.75-5.26-33.33,13.89l-14.12,9" transform="translate(-535.27 -268.18)"/><line class="cls-1" x1="92" y1="108.37" x2="79.57" y2="92.56"/><path class="cls-1" d="M582.09,335.61V274.53a1.46,1.46,0,0,1,.07-.19,8.65,8.65,0,0,1,16.23,0,2,2,0,0,1,.08.22v61.05l6.56,0L610,284.2l.53-5.56a.88.88,0,0,1,.09-.2A8.65,8.65,0,0,1,626.73,280a1.74,1.74,0,0,1,0,.22l-.53,5.54-5,52.12-.6,30.3" transform="translate(-535.27 -268.18)"/><path class="cls-1" d="M560.62,340,555,288.1l-.6-5.51a.86.86,0,0,1,.06-.23,8.64,8.64,0,0,1,16.13-1.73.88.88,0,0,1,.1.22l.6,5.51,5.22,48.69" transform="translate(-535.27 -268.18)"/><path class="cls-1" d="M558.76,340,550,305.56v0l-1.14-4.47-.09-.15a7.12,7.12,0,0,0-13,3.3s0,.11,0,.17l1.13,4.46,9.84,38.56,1.75,4.57v59.86l9.6,15,16.38,2.82" transform="translate(-535.27 -268.18)"/><path class="cls-1" d="M553,343.65A24.57,24.57,0,0,1,565.5,339" transform="translate(-535.27 -268.18)"/><path class="cls-1" d="M570.09,336.74s3.25-2.26,20.19-1.13" transform="translate(-535.27 -268.18)"/><line class="cls-1" x1="53.41" y1="40.51" x2="63.2" y2="40.51"/><line class="cls-1" x1="7.67" y1="64.34" x2="15.2" y2="61.59"/><line class="cls-1" x1="7.2" y1="49.64" x2="16.99" y2="46.36"/><line class="cls-1" x1="29.41" y1="44.56" x2="38.79" y2="43.61"/><line class="cls-1" x1="27.34" y1="24.6" x2="36.58" y2="23.01"/><line class="cls-1" x1="55.85" y1="18.2" x2="63.2" y2="18.2"/><line class="cls-1" x1="81.45" y1="29.22" x2="89.76" y2="30.34"/><line class="cls-1" x1="78.44" y1="50.24" x2="87.77" y2="51.15"/><line class="cls-1" x1="44.42" y1="173.03" x2="44.42" y2="184.89"/><polyline class="cls-1" points="278.35 152.41 278.35 184.89 227.81 184.89 227.81 164.56"/><path class="cls-1" d="M779.45,432.74,767.6,435l-26.55-22.31-7.62-22.59s-20.33-16.66-22.59-18.63c-2-1.72-12.61-16.16-15.42-20a.81.81,0,0,1,.45-1.26c4.78-1.35,23.75-5.26,33.33,13.89l14.11,9" transform="translate(-535.27 -268.18)"/><line class="cls-1" x1="205.5" y1="108.37" x2="217.93" y2="92.56"/><path class="cls-1" d="M786,335.61V274.53a1.46,1.46,0,0,0-.07-.19,8.65,8.65,0,0,0-16.23,0,2,2,0,0,0-.08.22v61.05l-6.56,0-4.92-51.44-.53-5.56a.88.88,0,0,0-.09-.2A8.65,8.65,0,0,0,741.31,280a1.74,1.74,0,0,0,0,.22l.53,5.54,5,52.12.6,30.3" transform="translate(-535.27 -268.18)"/><path class="cls-1" d="M807.42,340,813,288.1l.6-5.51a.86.86,0,0,0-.06-.23,8.64,8.64,0,0,0-16.13-1.73.88.88,0,0,0-.1.22l-.6,5.51-5.23,48.69" transform="translate(-535.27 -268.18)"/><path class="cls-1" d="M809.28,340l8.79-34.43v0l1.14-4.47.09-.15a7.12,7.12,0,0,1,13,3.3s0,.11,0,.17l-1.13,4.46-9.84,38.56L819.55,352v59.86l-9.6,15-16.38,2.82" transform="translate(-535.27 -268.18)"/><path class="cls-1" d="M815,343.65A24.57,24.57,0,0,0,802.54,339" transform="translate(-535.27 -268.18)"/><path class="cls-1" d="M798,336.74s-3.25-2.26-20.19-1.13" transform="translate(-535.27 -268.18)"/><line class="cls-1" x1="244.09" y1="40.51" x2="234.3" y2="40.51"/><line class="cls-1" x1="289.83" y1="64.34" x2="282.3" y2="61.59"/><line class="cls-1" x1="290.3" y1="49.64" x2="280.5" y2="46.36"/><line class="cls-1" x1="268.09" y1="44.56" x2="258.71" y2="43.61"/><line class="cls-1" x1="270.16" y1="24.6" x2="260.92" y2="23.01"/><line class="cls-1" x1="241.64" y1="18.2" x2="234.3" y2="18.2"/><line class="cls-1" x1="216.04" y1="29.22" x2="207.74" y2="30.34"/><line class="cls-1" x1="219.05" y1="50.24" x2="209.73" y2="51.15"/><line class="cls-1" x1="253.08" y1="173.03" x2="253.08" y2="184.89"/></svg>