<svg id="Layer_3" data-name="Layer 3" xmlns="http://www.w3.org/2000/svg" viewBox="0 0 290.88 184.39"><defs><style>.cls-1{fill:#fff;}</style></defs><path class="cls-1" d="M7.15,390.73C4.34,394.54-6.31,409-8.27,410.7c-2.26,2-22.59,18.63-22.59,18.63l-7.62,22.59-22,18.52V492.3H-85.28V480.44a.5.5,0,0,0-.5-.5.5.5,0,0,0-.5.5V492.3H-111v-32l-.22-.34-5.71-8.89V391.22l-1.75-4.58-3.67-14.4h.05l7.52-2.76a.5.5,0,0,0,.3-.64.49.49,0,0,0-.64-.29l-7.48,2.73-5.92-23.19-1.13-4.46c0-.06,0-.12,0-.17a7.12,7.12,0,0,1,5.32-6.16,7.14,7.14,0,0,1,7.63,2.86l.09.15,1.14,4.47v0l2.17,8.51h0l-9.8,3.28a.5.5,0,0,0-.31.63.49.49,0,0,0,.47.34l.16,0,9.76-3.27,6.24,24.48a24.79,24.79,0,0,0-6.35,3.4.49.49,0,0,0-.08.7.47.47,0,0,0,.39.19.5.5,0,0,0,.31-.1,24.37,24.37,0,0,1,7.47-3.7h.25v-.07a20.31,20.31,0,0,1,4.5-.79.5.5,0,0,0,.47-.53.51.51,0,0,0-.53-.47,21.93,21.93,0,0,0-4.55.77l-5.46-50.81-.6-5.51a.86.86,0,0,1,.06-.23,8.64,8.64,0,0,1,7.46-6.49,8.63,8.63,0,0,1,8.67,4.76.88.88,0,0,1,.1.22l.6,5.51.47,4.34h0l-9.24,1.59a.5.5,0,0,0-.41.58.49.49,0,0,0,.49.42h.09l9.2-1.58,2.11,19.59-9.38,1a.51.51,0,0,0-.45.55.51.51,0,0,0,.5.45h.05l9.38-1h0l2.42,22.55c-5.83.36-7.36,1.34-7.45,1.4a.5.5,0,0,0-.13.69.51.51,0,0,0,.42.22.53.53,0,0,0,.27-.08s3.53-2.13,19.88-1a.51.51,0,0,0,.53-.47.5.5,0,0,0-.46-.53c-2.87-.19-5.36-.28-7.51-.3v-60.2a1.46,1.46,0,0,1,.07-.19,8.65,8.65,0,0,1,8.12-5.66,8.64,8.64,0,0,1,8.11,5.66,2,2,0,0,1,.08.22v11.33h-7.34a.5.5,0,0,0-.5.5.5.5,0,0,0,.5.5H-67v21.3h-9.79a.51.51,0,0,0-.5.5.5.5,0,0,0,.5.5H-67v26.42l6.57,0,4.91-51.45.53-5.56a.88.88,0,0,1,.09-.2,8.66,8.66,0,0,1,8.62-4.86,8.67,8.67,0,0,1,7.54,6.4,1.74,1.74,0,0,1,.05.22l-.53,5.54-1.17,12.29-8.28-1.13a.51.51,0,0,0-.57.43.5.5,0,0,0,.43.56l8.31,1.13h0l-1.89,19.82-9.32-.92a.51.51,0,0,0-.55.45.5.5,0,0,0,.45.55l9.32.92-1.72,18-.57,29-5.41-6.89a.51.51,0,0,0-.71-.09.5.5,0,0,0-.08.7l12.42,15.82a.53.53,0,0,0,.4.19.56.56,0,0,0,.31-.11.5.5,0,0,0,.08-.7l-2.38-3,13.52-8.65c9.57-19.15,28.54-15.25,33.33-13.9A.81.81,0,0,1,7.15,390.73Z" transform="translate(129.7 -307.91)"/><path class="cls-1" d="M24.33,390.73c2.81,3.81,13.46,18.26,15.42,20,2.26,2,22.59,18.63,22.59,18.63L70,451.92l22,18.52V492.3h24.77V480.44a.5.5,0,0,1,.5-.5.5.5,0,0,1,.5.5V492.3h24.77v-32l.22-.34,5.71-8.89V391.22l1.75-4.58,3.67-14.4h0l-7.52-2.76a.5.5,0,0,1-.3-.64.49.49,0,0,1,.64-.29l7.48,2.73,5.92-23.19,1.13-4.46c0-.06,0-.12,0-.17a7.12,7.12,0,0,0-12.95-3.3l-.09.15L147,344.77v0l-2.17,8.51h0l9.8,3.28a.5.5,0,0,1-.16,1l-.16,0-9.76-3.27-6.24,24.48a24.79,24.79,0,0,1,6.35,3.4.49.49,0,0,1,.08.7.47.47,0,0,1-.39.19.5.5,0,0,1-.31-.1,24.37,24.37,0,0,0-7.47-3.7h-.25v-.07a20.31,20.31,0,0,0-4.5-.79.5.5,0,0,1-.47-.53.51.51,0,0,1,.53-.47,21.93,21.93,0,0,1,4.55.77l5.46-50.81.6-5.51a.86.86,0,0,0-.06-.23,8.64,8.64,0,0,0-16.13-1.73.88.88,0,0,0-.1.22l-.6,5.51-.47,4.34h0l9.24,1.59a.5.5,0,0,1-.08,1h-.09l-9.2-1.58-2.11,19.59,9.38,1a.5.5,0,0,1,0,1h-.05l-9.38-1h0l-2.42,22.55c5.83.36,7.36,1.34,7.45,1.4a.5.5,0,0,1,.13.69.51.51,0,0,1-.42.22.53.53,0,0,1-.27-.08s-3.53-2.13-19.88-1a.51.51,0,0,1-.53-.47.5.5,0,0,1,.46-.53c2.87-.19,5.36-.28,7.51-.3v-60.2a1.46,1.46,0,0,0-.07-.19,8.65,8.65,0,0,0-16.23,0,2,2,0,0,0-.08.22v11.33h7.34a.5.5,0,0,1,.5.5.5.5,0,0,1-.5.5H98.48v21.3h9.79a.51.51,0,0,1,.5.5.5.5,0,0,1-.5.5H98.48v26.42l-6.57,0L87,323.43l-.53-5.56a.88.88,0,0,0-.09-.2,8.65,8.65,0,0,0-16.16,1.54,1.74,1.74,0,0,0,0,.22L70.7,325l1.17,12.29,8.28-1.13a.51.51,0,0,1,.57.43.5.5,0,0,1-.43.56L72,338.25h0l1.89,19.82,9.32-.92a.51.51,0,0,1,.55.45.5.5,0,0,1-.45.55l-9.32.92,1.72,18,.57,29,5.41-6.89a.5.5,0,1,1,.79.61L70,415.66a.53.53,0,0,1-.4.19.56.56,0,0,1-.31-.11.5.5,0,0,1-.08-.7l2.38-3L58.1,403.36c-9.57-19.15-28.54-15.25-33.33-13.9A.81.81,0,0,0,24.33,390.73Z" transform="translate(129.7 -307.91)"/></svg>